{
	"asset":{
		"generator":"Khronos glTF Blender I/O v4.1.62",
		"version":"2.0"
	},
	"extensionsUsed":[
		"KHR_materials_specular"
	],
	"scene":0,
	"scenes":[
		{
			"name":"Scene",
			"nodes":[
				45
			]
		}
	],
	"nodes":[
		{
			"name":"thumb_left3_end",
			"rotation":[
				1.564621925354004e-07,
				2.0116567611694336e-07,
				8.195638656616211e-08,
				1
			],
			"scale":[
				1,
				0.9999999403953552,
				1
			],
			"translation":[
				-7.748603820800781e-07,
				0.4857705235481262,
				-8.642673492431641e-07
			]
		},
		{
			"children":[
				0
			],
			"name":"thumb_left3",
			"rotation":[
				3.3527612686157227e-07,
				3.9488074321525346e-07,
				1.341104507446289e-07,
				1
			],
			"scale":[
				1,
				1,
				1.0000001192092896
			],
			"translation":[
				-3.6209821701049805e-06,
				0.9715322256088257,
				5.0067901611328125e-06
			]
		},
		{
			"children":[
				1
			],
			"name":"thumb_left2",
			"rotation":[
				-8.344650268554688e-07,
				-7.636844543412735e-07,
				-5.774199962615967e-07,
				1
			],
			"scale":[
				1.0000001192092896,
				1,
				1
			],
			"translation":[
				1.6093254089355469e-06,
				1.1658551692962646,
				-1.7285346984863281e-06
			]
		},
		{
			"children":[
				2
			],
			"name":"thumb_left1",
			"rotation":[
				1.30385160446167e-07,
				-7.82310962677002e-08,
				-4.6193599700927734e-07,
				1
			],
			"translation":[
				2.980232238769531e-07,
				0.9715392589569092,
				-1.1920928955078125e-07
			]
		},
		{
			"children":[
				3
			],
			"name":"thumb_left0",
			"rotation":[
				0.49673885107040405,
				0.4424591362476349,
				0.260824978351593,
				0.6996075510978699
			],
			"translation":[
				2.1106157302856445,
				0.670278012752533,
				-0.25160276889801025
			]
		},
		{
			"name":"index_left3_end",
			"rotation":[
				-6.388872861862183e-07,
				-4.973262548446655e-07,
				1.6577539554418763e-06,
				1
			],
			"scale":[
				1.0000001192092896,
				1.0000001192092896,
				1
			],
			"translation":[
				-1.9669532775878906e-06,
				0.7331914901733398,
				-9.5367431640625e-07
			]
		},
		{
			"children":[
				5
			],
			"name":"index_left3",
			"rotation":[
				1.2628734111785889e-06,
				1.2721866369247437e-06,
				-2.777203917503357e-06,
				1
			],
			"scale":[
				1,
				0.9999999403953552,
				1
			],
			"translation":[
				1.9669532775878906e-06,
				1.4663746356964111,
				2.384185791015625e-07
			]
		},
		{
			"children":[
				6
			],
			"name":"index_left2",
			"rotation":[
				-0.0812079906463623,
				-0.20567062497138977,
				-0.2778588533401489,
				0.9348258376121521
			],
			"scale":[
				0.9999998807907104,
				1.0000001192092896,
				0.9999999403953552
			],
			"translation":[
				-7.152557373046875e-07,
				1.389467716217041,
				-1.5497207641601562e-06
			]
		},
		{
			"children":[
				7
			],
			"name":"index_left1",
			"rotation":[
				-0.001900194096378982,
				-0.046149544417858124,
				-0.08868483453989029,
				0.9949882626533508
			],
			"scale":[
				1.0000001192092896,
				0.9999998807907104,
				0.9999999403953552
			],
			"translation":[
				-1.0728836059570312e-06,
				3.299370050430298,
				-1.1920928955078125e-06
			]
		},
		{
			"children":[
				8
			],
			"name":"index_left0",
			"rotation":[
				0.4935651421546936,
				0.4466995894908905,
				0.24606011807918549,
				0.7044908404350281
			],
			"scale":[
				1.0000001192092896,
				1.000000238418579,
				1.0000001192092896
			],
			"translation":[
				-0.20585322380065918,
				1.8725543022155762,
				-1.9988694190979004
			]
		},
		{
			"children":[
				4,
				9
			],
			"name":"arm_left_hand",
			"rotation":[
				-0.2770538628101349,
				-0.28058111667633057,
				-0.08282681554555893,
				0.9152349829673767
			],
			"scale":[
				1,
				0.9999999403953552,
				1
			],
			"translation":[
				-8.642673492431641e-07,
				9.887472152709961,
				1.1920928955078125e-07
			]
		},
		{
			"children":[
				10
			],
			"name":"arm_left_bot",
			"rotation":[
				0.052564457058906555,
				0.050204578787088394,
				-0.015531167387962341,
				0.9972338080406189
			],
			"scale":[
				1,
				1.0000001192092896,
				0.9999999403953552
			],
			"translation":[
				-9.57399606704712e-07,
				9.71529483795166,
				1.1920928955078125e-07
			]
		},
		{
			"children":[
				11
			],
			"name":"arm_left_top",
			"rotation":[
				-0.0002803868264891207,
				-0.00043217389611527324,
				0.031783878803253174,
				0.9994946122169495
			],
			"translation":[
				-2.775341272354126e-07,
				2.1698756217956543,
				-5.21540641784668e-08
			]
		},
		{
			"children":[
				12
			],
			"name":"shoulder_left",
			"rotation":[
				-0.0032494589686393738,
				-1.3066468795841502e-08,
				-0.7127576470375061,
				0.7014029026031494
			],
			"translation":[
				8.962716102600098,
				0.17145264148712158,
				-1.8507051467895508
			]
		},
		{
			"name":"thumb_right3_end",
			"rotation":[
				1.1175870895385742e-08,
				2.60770320892334e-08,
				-7.450580152834618e-09,
				1
			],
			"scale":[
				1,
				0.9999999403953552,
				1
			],
			"translation":[
				-7.674098014831543e-07,
				0.4224434494972229,
				-1.4603137969970703e-06
			]
		},
		{
			"children":[
				14
			],
			"name":"thumb_right3",
			"rotation":[
				1.7881393432617188e-07,
				9.313225746154785e-08,
				4.880130290985107e-07,
				1
			],
			"translation":[
				-1.3709068298339844e-06,
				0.8448814153671265,
				1.6689300537109375e-06
			]
		},
		{
			"children":[
				15
			],
			"name":"thumb_right2",
			"rotation":[
				-1.5981494243533234e-06,
				2.4586915969848633e-07,
				-1.5497206504733185e-06,
				1
			],
			"scale":[
				1,
				1.0000001192092896,
				1
			],
			"translation":[
				2.9802322387695312e-08,
				1.0138590335845947,
				-7.152557373046875e-07
			]
		},
		{
			"children":[
				16
			],
			"name":"thumb_right1",
			"rotation":[
				1.1324881370455842e-06,
				-1.1771916206271271e-06,
				-6.332992938951065e-07,
				1
			],
			"scale":[
				1.0000001192092896,
				1.0000001192092896,
				1.0000001192092896
			],
			"translation":[
				-1.4901161193847656e-06,
				0.844892680644989,
				7.152557373046875e-07
			]
		},
		{
			"children":[
				17
			],
			"name":"thumb_right0",
			"rotation":[
				0.5375858545303345,
				-0.38727959990501404,
				-0.12528198957443237,
				0.7384580969810486
			],
			"scale":[
				0.9999997615814209,
				0.9999998807907104,
				0.9999998807907104
			],
			"translation":[
				-1.2478177547454834,
				-0.11637365818023682,
				0.36627769470214844
			]
		},
		{
			"name":"index_right3_end",
			"rotation":[
				1.0598450899124146e-06,
				-2.0116567611694336e-06,
				-1.600012183189392e-06,
				1
			],
			"translation":[
				-8.344650268554688e-07,
				0.6941434144973755,
				7.152557373046875e-07
			]
		},
		{
			"children":[
				19
			],
			"name":"index_right3",
			"rotation":[
				-1.126900315284729e-06,
				1.952052116394043e-06,
				1.3746321201324463e-06,
				1
			],
			"translation":[
				-3.5762786865234375e-07,
				1.388275384902954,
				-7.152557373046875e-07
			]
		},
		{
			"children":[
				20
			],
			"name":"index_right2",
			"rotation":[
				-0.06420249491930008,
				0.1769145429134369,
				0.2848013937473297,
				0.9399295449256897
			],
			"scale":[
				1.0000001192092896,
				1,
				1
			],
			"translation":[
				6.571412086486816e-06,
				1.2671369314193726,
				7.3909759521484375e-06
			]
		},
		{
			"children":[
				21
			],
			"name":"index_right1",
			"rotation":[
				0.0034985849633812904,
				0.06369016319513321,
				0.14961884915828705,
				0.9866841435432434
			],
			"scale":[
				0.9999999403953552,
				1,
				1
			],
			"translation":[
				-3.933906555175781e-06,
				3.1255617141723633,
				-6.67572021484375e-06
			]
		},
		{
			"children":[
				22
			],
			"name":"index_right0",
			"rotation":[
				0.5261406302452087,
				-0.35852116346359253,
				-0.16948620975017548,
				0.7522719502449036
			],
			"scale":[
				0.9999999403953552,
				0.9999999403953552,
				1
			],
			"translation":[
				0.21934962272644043,
				1.6153414249420166,
				-1.6382155418395996
			]
		},
		{
			"children":[
				18,
				23
			],
			"name":"arm_right_hand",
			"rotation":[
				-0.2781827449798584,
				0.26552248001098633,
				-0.08396115154027939,
				0.9192729592323303
			],
			"translation":[
				8.642673492431641e-07,
				9.887472152709961,
				1.1920928955078125e-07
			]
		},
		{
			"children":[
				24
			],
			"name":"arm_right_bot",
			"rotation":[
				0.052564457058906555,
				-0.050204578787088394,
				0.015531167387962341,
				0.9972338080406189
			],
			"scale":[
				1,
				1.0000001192092896,
				0.9999999403953552
			],
			"translation":[
				9.57399606704712e-07,
				9.71529483795166,
				1.1920928955078125e-07
			]
		},
		{
			"children":[
				25
			],
			"name":"arm_right_top",
			"rotation":[
				-0.0002803868264891207,
				0.0004321739252191037,
				-0.03178388625383377,
				0.9994946122169495
			],
			"translation":[
				3.6694109439849854e-07,
				2.1698756217956543,
				-5.21540641784668e-08
			]
		},
		{
			"children":[
				26
			],
			"name":"shoulder_right",
			"rotation":[
				-0.0032494589686393738,
				1.3066468795841502e-08,
				0.7127576470375061,
				0.7014029026031494
			],
			"translation":[
				-8.372895240783691,
				0.17145271599292755,
				-1.8507051467895508
			]
		},
		{
			"name":"head_end",
			"rotation":[
				0,
				3.308722450212111e-24,
				-6.368650495858219e-09,
				1
			],
			"translation":[
				6.064228230684421e-09,
				2.3397676944732666,
				-4.315779733587988e-08
			]
		},
		{
			"children":[
				28
			],
			"name":"head",
			"rotation":[
				0,
				-3.308722450212111e-24,
				6.368650495858219e-09,
				1
			],
			"translation":[
				0,
				4.679537773132324,
				1.8613263819133863e-08
			]
		},
		{
			"children":[
				29
			],
			"name":"neck",
			"rotation":[
				-1.8125998479945338e-08,
				-9.926167350636332e-24,
				-2.2657498099931672e-09,
				1
			],
			"translation":[
				6.168719313137672e-09,
				1.9999991655349731,
				-1.456131712984643e-07
			]
		},
		{
			"children":[
				13,
				27,
				30
			],
			"name":"body_top2",
			"rotation":[
				1.8125998479945338e-08,
				7.50204111191129e-17,
				6.404578201113509e-09,
				1
			],
			"translation":[
				-1.4185439489722285e-08,
				3.6003334522247314,
				-8.840572718327167e-09
			]
		},
		{
			"children":[
				31
			],
			"name":"body_top1",
			"rotation":[
				0,
				0,
				-4.138828391120342e-09,
				1
			],
			"translation":[
				0,
				4.320395469665527,
				-4.2239605591021245e-08
			]
		},
		{
			"children":[
				32
			],
			"name":"body_top0",
			"rotation":[
				-1.3642420526593924e-12,
				0,
				0,
				1
			],
			"translation":[
				-2.9802322387695312e-08,
				3.600332498550415,
				1.0840420827662456e-07
			]
		},
		{
			"name":"leg_left_foot_end",
			"rotation":[
				-2.2063733950972164e-08,
				-9.736165155072984e-16,
				4.412746434923065e-08,
				1
			],
			"translation":[
				1.2481862654567522e-07,
				5.402951240539551,
				1.059022451954661e-07
			]
		},
		{
			"children":[
				34
			],
			"name":"leg_left_foot",
			"rotation":[
				2.2063733950972164e-08,
				5.5351384935537905e-16,
				-6.316788159210773e-08,
				1
			],
			"translation":[
				2.1212706258211256e-08,
				12.521709442138672,
				-2.543265509302728e-08
			]
		},
		{
			"children":[
				35
			],
			"name":"leg_left_bot",
			"rotation":[
				1.3642420526593924e-12,
				-2.5993323568866342e-20,
				1.9040417242877083e-08,
				1
			],
			"translation":[
				0,
				15.549598693847656,
				-3.370848844497232e-08
			]
		},
		{
			"children":[
				36
			],
			"name":"leg_left_top",
			"rotation":[
				0,
				0,
				-1,
				0
			],
			"translation":[
				5.47989559173584,
				1.4772032499313354,
				-0.1358345001935959
			]
		},
		{
			"name":"leg_right_foot_end",
			"rotation":[
				-2.2896532669847147e-08,
				0,
				0,
				1
			],
			"translation":[
				0,
				5.2064337730407715,
				7.809876478859223e-08
			]
		},
		{
			"children":[
				38
			],
			"name":"leg_right_foot",
			"rotation":[
				2.2896532669847147e-08,
				-4.3595954644099345e-16,
				-1.9040417242877083e-08,
				1
			],
			"translation":[
				2.1212706258211256e-08,
				12.521709442138672,
				-2.543265509302728e-08
			]
		},
		{
			"children":[
				39
			],
			"name":"leg_right_bot",
			"rotation":[
				1.3642420526593924e-12,
				-2.5993323568866342e-20,
				1.9040417242877083e-08,
				1
			],
			"translation":[
				0,
				15.549598693847656,
				-3.370848844497232e-08
			]
		},
		{
			"children":[
				40
			],
			"name":"leg_right_top",
			"rotation":[
				0,
				0,
				-1,
				0
			],
			"translation":[
				-4.89007568359375,
				1.4772032499313354,
				-0.1358345001935959
			]
		},
		{
			"children":[
				33,
				37,
				41
			],
			"name":"body",
			"rotation":[
				-5.00725036545191e-06,
				0,
				0,
				1
			],
			"translation":[
				2.9802322387695312e-08,
				31.997051239013672,
				-0.0003202967927791178
			]
		},
		{
			"children":[
				42
			],
			"name":"root",
			"rotation":[
				-0.7071031928062439,
				0,
				0,
				0.7071103453636169
			],
			"translation":[
				-0.2949100434780121,
				-2.0197038650512695,
				31.00341033935547
			]
		},
		{
			"mesh":0,
			"name":"trump_lp_anim_iddle01",
			"skin":0
		},
		{
			"children":[
				44,
				43
			],
			"name":"rig",
			"rotation":[
				0.7071068286895752,
				0,
				0,
				0.7071068286895752
			]
		}
	],
	"materials":[
		{
			"doubleSided":true,
			"extensions":{
				"KHR_materials_specular":{
					"specularFactor":0
				}
			},
			"name":"TrumpLPmat",
			"pbrMetallicRoughness":{
				"baseColorTexture":{
					"index":0
				},
				"metallicFactor":0,
				"roughnessFactor":0.858578622341156
			}
		}
	],
	"meshes":[
		{
			"name":"trump_lp_anim_iddle01",
			"primitives":[
				{
					"attributes":{
						"POSITION":0,
						"NORMAL":1,
						"TEXCOORD_0":2,
						"JOINTS_0":3,
						"WEIGHTS_0":4
					},
					"indices":5,
					"material":0
				}
			]
		}
	],
	"textures":[
		{
			"sampler":0,
			"source":0
		}
	],
	"images":[
		{
			"bufferView":6,
			"mimeType":"image/png",
			"name":"tumpLPcolors"
		}
	],
	"skins":[
		{
			"inverseBindMatrices":6,
			"joints":[
				43,
				42,
				33,
				32,
				31,
				13,
				12,
				11,
				10,
				4,
				3,
				2,
				1,
				0,
				9,
				8,
				7,
				6,
				5,
				27,
				26,
				25,
				24,
				18,
				17,
				16,
				15,
				14,
				23,
				22,
				21,
				20,
				19,
				30,
				29,
				28,
				37,
				36,
				35,
				34,
				41,
				40,
				39,
				38
			],
			"name":"rig"
		}
	],
	"accessors":[
		{
			"bufferView":0,
			"componentType":5126,
			"count":3416,
			"max":[
				37.25699234008789,
				30.917585372924805,
				13.139450073242188
			],
			"min":[
				-36.82197189331055,
				-31.003408432006836,
				-13.13945198059082
			],
			"type":"VEC3"
		},
		{
			"bufferView":1,
			"componentType":5126,
			"count":3416,
			"type":"VEC3"
		},
		{
			"bufferView":2,
			"componentType":5126,
			"count":3416,
			"type":"VEC2"
		},
		{
			"bufferView":3,
			"componentType":5121,
			"count":3416,
			"type":"VEC4"
		},
		{
			"bufferView":4,
			"componentType":5126,
			"count":3416,
			"type":"VEC4"
		},
		{
			"bufferView":5,
			"componentType":5123,
			"count":3798,
			"type":"SCALAR"
		},
		{
			"bufferView":7,
			"componentType":5126,
			"count":44,
			"type":"MAT4"
		}
	],
	"bufferViews":[
		{
			"buffer":0,
			"byteLength":40992,
			"byteOffset":0,
			"target":34962
		},
		{
			"buffer":0,
			"byteLength":40992,
			"byteOffset":40992,
			"target":34962
		},
		{
			"buffer":0,
			"byteLength":27328,
			"byteOffset":81984,
			"target":34962
		},
		{
			"buffer":0,
			"byteLength":13664,
			"byteOffset":109312,
			"target":34962
		},
		{
			"buffer":0,
			"byteLength":54656,
			"byteOffset":122976,
			"target":34962
		},
		{
			"buffer":0,
			"byteLength":7596,
			"byteOffset":177632,
			"target":34963
		},
		{
			"buffer":0,
			"byteLength":1588,
			"byteOffset":185228
		},
		{
			"buffer":0,
			"byteLength":2816,
			"byteOffset":186816
		}
	],
	"samplers":[
		{
			"magFilter":9729,
			"minFilter":9987
		}
	],
	"buffers":[
		{
			"byteLength":189632,
			"uri":"data:application/octet-stream;base64,"
		}
	]
}
