# Blender 4.2.3 LTS
# www.blender.org
mtllib window.mtl
o WallFood.002
v -0.100000 2.000000 -1.000000
v -0.100000 -0.000000 -1.000000
v -0.100000 2.000000 1.000000
v -0.100000 0.000000 1.000000
v 0.100000 2.000000 1.000000
v 0.100000 2.000000 -1.000000
v 0.100001 -0.000000 -1.000000
v 0.100000 0.000000 1.000000
v 0.100000 1.708127 -0.625000
v 0.100000 1.708127 0.625000
v -0.100000 0.558127 0.625000
v -0.100000 0.558127 -0.625000
v -0.100000 1.708127 0.625000
v -0.100000 1.708127 -0.625000
v 0.100000 0.558127 -0.625000
v 0.100000 0.558127 0.625000
v 0.052887 0.606369 -0.565594
v 0.052887 1.642746 -0.565594
v 0.052887 0.606369 0.565594
v 0.052887 1.642746 0.565594
v -0.052887 0.606369 -0.565594
v -0.052887 1.642746 -0.565594
v -0.052887 0.606369 0.565594
v -0.052887 1.642746 0.565594
v 0.052887 0.606369 0.625000
v 0.052887 0.606369 -0.625000
v 0.052887 1.708127 -0.625000
v 0.052887 1.708127 0.625000
v -0.052887 1.708127 0.625000
v -0.052887 0.606369 0.625000
v -0.052887 0.606369 -0.625000
v -0.052887 1.708127 -0.625000
v 0.216056 0.573275 -0.625000
v 0.200907 0.558127 -0.625000
v 0.200907 0.606369 -0.625000
v 0.216056 0.591220 -0.625000
v 0.200907 0.558127 0.625000
v 0.216056 0.573275 0.625000
v 0.216056 0.591220 0.625000
v 0.200907 0.606369 0.625000
v -0.200907 0.558127 -0.625000
v -0.216056 0.573275 -0.625000
v -0.216056 0.591220 -0.625000
v -0.200907 0.606369 -0.625000
v -0.216056 0.573275 0.625000
v -0.200907 0.558127 0.625000
v -0.200907 0.606369 0.625000
v -0.216056 0.591220 0.625000
vn 1.0000 -0.0000 -0.0000
vn -1.0000 -0.0000 -0.0000
vn -0.0000 -1.0000 -0.0000
vn -0.0000 1.0000 -0.0000
vn -0.0000 -0.0000 1.0000
vn -0.0000 -0.0000 -1.0000
vn 0.7071 -0.7071 -0.0000
vn 0.7071 0.7071 -0.0000
vn -0.7071 -0.7071 -0.0000
vn -0.7071 0.7071 -0.0000
vt 0.916987 0.913967
vt 0.916987 0.904266
vt 0.917687 0.847497
vt 0.917687 0.913967
vt 0.917687 0.904266
vt 0.917687 0.866046
vt 0.916987 0.847497
vt 0.916987 0.866046
vt 0.917522 0.867649
vt 0.917522 0.902094
vt 0.917152 0.902094
vt 0.917152 0.867649
vt 0.917152 0.904266
vt 0.917522 0.904266
vt 0.931048 0.679603
vt 0.931148 0.680106
vt 0.931148 0.680703
vt 0.931048 0.681206
vt 0.928395 0.681206
vt 0.928295 0.680703
vt 0.928295 0.680106
vt 0.928395 0.679603
s 1
usemtl Material.001
f 5/1/1 10/2/1 9/2/1 6/1/1
f 4/3/2 3/4/2 13/5/2 11/6/2
f 4/3/3 2/3/3 7/7/3 8/7/3
f 14/5/2 1/4/2 2/3/2 12/6/2
f 3/4/4 5/1/4 6/1/4 1/4/4
f 7/7/1 6/1/1 9/2/1 15/8/1
f 7/7/1 15/8/1 16/8/1 8/7/1
f 5/1/5 3/4/5 4/3/5 8/7/5
f 1/4/2 14/5/2 13/5/2 3/4/2
f 5/1/1 8/7/1 16/8/1 10/2/1
f 11/6/2 12/6/2 2/3/2 4/3/2
f 14/5/5 12/6/5 15/8/5 9/2/5
f 12/6/4 11/6/4 16/8/4 15/8/4
f 14/5/3 9/2/3 10/2/3 13/5/3
f 23/9/6 24/10/6 20/11/6 19/12/6
f 21/9/5 17/12/5 18/11/5 22/10/5
f 24/10/3 22/10/3 18/11/3 20/11/3
f 18/11/1 17/12/1 26/12/1 27/13/1
f 20/11/1 18/11/1 27/13/1 28/13/1
f 19/12/1 20/11/1 28/13/1 25/12/1
f 24/10/2 23/9/2 30/9/2 29/14/2
f 22/10/2 24/10/2 29/14/2 32/14/2
f 21/9/2 22/10/2 32/14/2 31/9/2
f 41/15/6 42/16/6 43/17/6 44/18/6 35/19/6 36/20/6 33/21/6 34/22/6
f 45/16/2 48/17/2 43/17/2 42/16/2
f 47/18/4 40/19/4 35/19/4 44/18/4
f 33/21/1 36/20/1 39/20/1 38/21/1
f 37/22/5 38/21/5 39/20/5 40/19/5 47/18/5 48/17/5 45/16/5 46/15/5
f 37/22/7 34/22/7 33/21/7 38/21/7
f 35/19/8 40/19/8 39/20/8 36/20/8
f 41/15/9 46/15/9 45/16/9 42/16/9
f 47/18/10 44/18/10 43/17/10 48/17/10
f 37/22/3 46/15/3 41/15/3 34/22/3
f 16/8/6 11/6/6 13/5/6 10/2/6
f 1/4/6 6/1/6 7/7/6 2/3/6
